# xmcd
#
# Track frame offsets: 
#        150
#        18378
#        34187
#        43551
#
# Disc length: 807 seconds
#
# Revision: 1
# Processed by: cddbd v1.5.2PL0 Copyright (c) Steve Scherf et al.
# Submitted via: ExactAudioCopyFreeDBPlugin 1.0
#
DISCID=28032504
DTITLE=Tonpei Hidari - HEY YOU! BLUES
DYEAR=1900
DGENRE=Blues
TTITLE0=Tonepei no Hey You Blues
TTITLE1=Tokyotte Iimachidana
TTITLE2=Tonpei no Dakebitari Jinsei
TTITLE3=Zoku Tokyotte Iimachidana
EXTD=
EXTT0=
EXTT1=
EXTT2=
EXTT3=
PLAYORDER=
